Motion_pl04
version=1
nRows=9
nColumns=43
inDegrees=yes
endheader
time	pelvis_tilt	pelvis_list	pelvis_rotation	pelvis_tx	pelvis_ty	pelvis_tz	hip_flexion_r	hip_adduction_r	hip_rotation_r	knee_angle_r	ankle_angle_r	subtalar_angle_r	mtp_angle_r	hip_flexion_l	hip_adduction_l	hip_rotation_l	knee_angle_l	ankle_angle_l	subtalar_angle_l	mtp_angle_l	lumbar_extension	lumbar_bending	lumbar_rotation	neck_flexion	neck_lateral_bending	neck_rotation	arm_flex_r	arm_add_r	arm_rot_r	elbow_flex_r	pro_sup_r	wrist_flex_r	wrist_dev_r	hand_finger_flex_r	arm_flex_l	arm_add_l	arm_rot_l	elbow_flex_l	pro_sup_l	wrist_flex_l	wrist_dev_l	hand_finger_flex_l
      0.00250000	      2.74995227	    -13.26820148	     87.61448096	      0.03711828	      1.85410192	      1.95481207	     79.94678397	      4.22375562	     -1.11598875	   -116.96501591	     25.52057706	     -3.48510957	    -13.98372005	     81.21310307	     -6.69387917	      0.54625338	   -121.43244758	     20.38828504	     -6.90162638	     25.44461935	    -59.38890270	      0.05074615	      1.99467981	     35.24467747	     -2.35342099	      3.97412361	     13.79144547	    -16.83270602	     -8.56944587	     73.60642229	    139.44059022	     -8.58608816	     -8.11316980	    -21.38009674	      6.98612950	    -17.12046540	    -12.32916035	     67.96181510	    127.36323973	    -12.01898104	      0.84319988	     17.60551955
      0.00500000	      2.76278493	    -13.17782172	     87.63034794	      0.03710240	      1.85198486	      1.95444951	     80.09116879	      4.26199064	     -1.06393746	   -117.35378906	     25.58996473	     -3.48516142	    -13.97512441	     81.35157507	     -6.67219573	      0.56962269	   -121.82757979	     20.42749591	     -6.97506987	     25.42925685	    -59.55809672	      0.06873840	      1.98631619	     35.32081761	     -2.36672057	      3.94449882	     13.96029645	    -16.82367464	     -8.60252717	     73.61443255	    139.40897863	     -8.51959493	     -8.10477577	    -21.34644189	      7.03768137	    -17.10828445	    -12.31835019	     67.94762303	    127.38180039	    -12.05825887	      0.84524377	     17.59253917
      0.00750000	      2.77667449	    -13.09717653	     87.66125234	      0.03723240	      1.84980202	      1.95408426	     80.25149815	      4.27060355	     -1.06948379	   -117.75788269	     25.67897927	     -3.46938653	    -13.96339771	     81.51147072	     -6.68725203	      0.56256330	   -122.21426547	     20.46470558	     -7.07403478	     25.40561043	    -59.71418709	      0.07741598	      1.97530110	     35.42791528	     -2.36984744	      3.91804472	     14.09578981	    -16.77541153	     -8.63279922	     73.66203853	    139.34593298	     -8.43631333	     -8.10014971	    -21.27957270	      7.07132478	    -17.11548833	    -12.30500742	     67.97481434	    127.41311252	    -12.11228170	      0.83725304	     17.57812498
      0.01000000	      2.82438021	    -13.19710728	     87.70493001	      0.03736779	      1.84721093	      1.95392229	     80.60998514	      4.27575713	     -1.12872812	   -118.15674153	     25.96380762	     -3.28710516	    -13.92804458	     81.89668285	     -6.67372787	      0.58248229	   -122.59367460	     20.47232161	     -7.47919292	     25.24613608	    -59.73523704	      0.11772848	      1.93774274	     35.70707618	     -2.34320624	      3.86549995	     14.18160660	    -16.66918893	     -8.78829376	     73.91037528	    138.99221719	     -8.05381142	     -8.09944839	    -20.86657708	      6.91307559	    -17.21956322	    -12.29417790	     68.24622089	    127.57478326	    -12.39070013	      0.77828939	     17.52705377
      0.01250000	      2.82280246	    -13.10438541	     87.73780859	      0.03744524	      1.84512092	      1.95353080	     80.74277851	      4.27558462	     -1.11118675	   -118.54437252	     25.99657441	     -3.28400633	    -13.92370969	     82.02699500	     -6.67846669	      0.55710856	   -122.96492638	     20.47657374	     -7.52657443	     25.22704918	    -59.90022204	      0.11878185	      1.95788692	     35.77997478	     -2.32135405	      3.86893949	     14.34358774	    -16.66584210	     -8.80742569	     73.87422364	    138.95418047	     -8.01607317	     -8.09109174	    -20.80839484	      7.03492273	    -17.18268250	    -12.27713132	     68.19625430	    127.59497914	    -12.41436593	      0.78597222	     17.52324028
      0.01500000	      2.82453841	    -13.02397650	     87.76056665	      0.03755450	      1.84294580	      1.95314774	     80.89771095	      4.27666339	     -1.11738328	   -118.94924265	     26.05519436	     -3.27665136	    -13.91421697	     82.16921143	     -6.68743024	      0.53910595	   -123.33982502	     20.49369369	     -7.59919707	     25.20658693	    -60.05474423	      0.10670311	      1.96661468	     35.86660527	     -2.29878515	      3.86097046	     14.48864907	    -16.65349644	     -8.82411879	     73.88076370	    138.91279544	     -7.99057969	     -8.09805273	    -20.75089258	      7.12269170	    -17.17973555	    -12.26301877	     68.18985254	    127.61921867	    -12.44247664	      0.77877941	     17.52050207
      0.01750000	      2.82122373	    -12.96145721	     87.78207749	      0.03772182	      1.84071101	      1.95275995	     81.07144968	      4.27926738	     -1.13038529	   -119.35904022	     26.13514091	     -3.26212555	    -13.89966246	     82.33378469	     -6.70450810	      0.52408413	   -123.72215811	     20.51607439	     -7.69902107	     25.18163365	    -60.19182022	      0.09106710	      1.97969258	     35.97278612	     -2.27057914	      3.84311889	     14.62030629	    -16.63577916	     -8.83248723	     73.89368162	    138.87239119	     -7.97493494	     -8.11624869	    -20.69555929	      7.19166772	    -17.18916301	    -12.24640166	     68.22417085	    127.64609902	    -12.47660122	      0.75641353	     17.51894277
      0.02000000	      2.82161897	    -12.91691772	     87.79922638	      0.03789911	      1.83845678	      1.95238837	     81.26304153	      4.28449701	     -1.15026217	   -119.76403007	     26.22830095	     -3.24220601	    -13.88064504	     82.51673638	     -6.72384771	      0.50882844	   -124.09834731	     20.53786470	     -7.81729065	     25.15391306	    -60.31920898	      0.06982995	      1.99758556	     36.09342940	     -2.23538975	      3.81630238	     14.75530633	    -16.62186232	     -8.83500034	     73.90251358	    138.84191249	     -7.97791686	     -8.14271773	    -20.65686191	      7.25211589	    -17.20579267	    -12.23289146	     68.27879186	    127.67107588	    -12.51327056	      0.72404548	     17.51851456
      0.02250000	      2.85865367	    -13.11700446	     87.80171663	      0.03827091	      1.83572535	      1.95226314	     81.71855355	      4.33866212	     -1.21681816	   -120.14255164	     26.50063035	     -3.06861969	    -13.80524807	     83.00943855	     -6.77280725	      0.51931262	   -124.47094689	     20.48924979	     -8.29325554	     24.99625175	    -60.22778001	      0.02420264	      2.00604572	     36.40027629	     -2.09596225	      3.71077596	     14.86258813	    -16.60402439	     -8.78549449	     73.96348935	    138.76863530	     -8.10229602	     -8.30265835	    -20.59599205	      7.15109736	    -17.30973113	    -12.24752542	     68.53424328	    127.75211877	    -12.67987350	      0.57408173	     17.53269181
